<svg xmlns="http://www.w3.org/2000/svg" width="64" height="64">
  <path d="M40.92.23c-.66-.35-1.46-.3-2.07.13L19.37 14H8c-4.4 0-8 3.6-8 8v20c0 4.4 3.6 8 8 8h11.37l19.48 13.64c.6.42 1.4.48 2.07.13.66-.34 1.08-1.02 1.08-1.77V2c0-.75-.4-1.43-1.08-1.77zM4 42V22c0-2.2 1.8-4 4-4h10v28H8c-2.2 0-4-1.8-4-4zm34 16.16l-16-11.2V17.04l16-11.2v52.32zM64 32c0 5.88-2.3 11.4-6.44 15.56-.78.78-2.05.78-2.83 0-.78-.78-.78-2.05 0-2.83C58.13 41.33 60 36.8 60 32c0-4.8-1.87-9.33-5.27-12.73-.78-.78-.78-2.04 0-2.83.78-.78 2.05-.78 2.83 0C61.7 20.6 64 26.12 64 32z"/>
</svg>