<?xml version="1.0" encoding="UTF-8"?>
<svg width="64px" height="64px" viewBox="0 0 64 64" version="1.1" xmlns="http://www.w3.org/2000/svg" xmlns:xlink="http://www.w3.org/1999/xlink">
    <!-- Generator: Sketch 47 (45396) - http://www.bohemiancoding.com/sketch -->
    <title>Shape</title>
    <desc>Created with Sketch.</desc>
    <defs></defs>
    <g id="Page-1" stroke="none" stroke-width="1" fill="none" fill-rule="evenodd">
        <g id="noun_1232722_cc" transform="translate(0.000000, -1.000000)" fill-rule="nonzero" fill="#000000">
            <path d="M40.924,1.226 C40.262,0.881 39.463,0.933 38.854,1.361 L19.37,15 L8,15 C3.589,15 0,18.589 0,23 L0,43 C0,47.411 3.589,51 8,51 L19.37,51 L38.853,64.639 C39.455,65.06 40.25,65.124 40.923,64.774 C41.585,64.43 42,63.746 42,63 L42,3 C42,2.254 41.585,1.57 40.924,1.226 Z M4,43 L4,23 C4,20.794 5.794,19 8,19 L18,19 L18,47 L8,47 C5.794,47 4,45.206 4,43 Z M38,59.159 L22,47.959 L22,18.042 L38,6.842 L38,59.159 Z M64,33 C64,38.876 61.712,44.4 57.557,48.557 C56.777,49.337 55.514,49.34 54.729,48.557 C53.949,47.776 53.949,46.509 54.729,45.729 C58.128,42.329 60,37.809 60,33 C60,28.192 58.128,23.671 54.729,20.272 C53.949,19.491 53.949,18.225 54.729,17.444 C55.51,16.663 56.776,16.663 57.557,17.444 C61.712,21.599 64,27.124 64,33 Z" id="Shape"></path>
        </g>
    </g>
</svg>