<svg xmlns="http://www.w3.org/2000/svg" width="64" height="64">
  <path d="M40.92.23c-.66-.35-1.45-.3-2.07.13L19.37 14H8c-4.4 0-8 3.6-8 8v20c0 4.4 3.6 8 8 8h11.37l19.48 13.64c.6.42 1.4.48 2.07.13.66-.34 1.08-1.02 1.08-1.77V2c0-.75-.4-1.43-1.08-1.77zM4 42V22c0-2.2 1.8-4 4-4h10v28H8c-2.2 0-4-1.8-4-4zm34 16.16l-16-11.2V17.04l16-11.2v52.32zM64 32c0 8-3.12 15.55-8.8 21.2-.77.8-2.03.8-2.82 0-.78-.77-.78-2.03 0-2.82C57.28 45.48 60 38.95 60 32c0-6.95-2.7-13.47-7.62-18.38-.78-.8-.78-2.05 0-2.83.78-.8 2.05-.8 2.83 0C60.9 16.42 64 24 64 32zm-8 0c0 5.88-2.3 11.4-6.44 15.56-.78.78-2.05.78-2.83 0-.78-.78-.78-2.05 0-2.83C50.13 41.33 52 36.8 52 32c0-4.8-1.87-9.33-5.27-12.73-.78-.78-.78-2.04 0-2.83.78-.78 2.05-.78 2.83 0C53.7 20.6 56 26.12 56 32z"/>
</svg>