<?xml version="1.0" encoding="UTF-8"?>
<svg width="64px" height="64px" viewBox="0 0 64 64" version="1.1" xmlns="http://www.w3.org/2000/svg" xmlns:xlink="http://www.w3.org/1999/xlink">
    <!-- Generator: Sketch 47 (45396) - http://www.bohemiancoding.com/sketch -->
    <title>Shape</title>
    <desc>Created with Sketch.</desc>
    <defs></defs>
    <g id="Page-1" stroke="none" stroke-width="1" fill="none" fill-rule="evenodd">
        <g id="noun_1232729_cc" fill-rule="nonzero" fill="#000000">
            <path d="M40.924,0.226 C40.264,-0.118 39.465,-0.066 38.854,0.361 L19.369,14 L8,14 C3.589,14 0,17.589 0,22 L0,42 C0,46.411 3.589,50 8,50 L19.369,50 L38.853,63.639 C39.455,64.06 40.25,64.124 40.923,63.774 C41.585,63.43 42,62.746 42,62 L42,2 C42,1.254 41.585,0.57 40.924,0.226 Z M4,42 L4,22 C4,19.794 5.794,18 8,18 L18,18 L18,46 L8,46 C5.794,46 4,44.206 4,42 Z M38,58.159 L22,46.959 L22,17.042 L38,5.842 L38,58.159 Z M64,32 C64,40.014 60.879,47.547 55.213,53.213 C54.432,53.994 53.166,53.994 52.385,53.213 C51.604,52.432 51.604,51.166 52.385,50.385 C57.295,45.475 60,38.945 60,32 C60,25.055 57.295,18.526 52.385,13.615 C51.604,12.834 51.604,11.568 52.385,10.787 C53.165,10.006 54.432,10.006 55.213,10.787 C60.879,16.453 64,23.986 64,32 Z M56,32 C56,37.876 53.711,43.4 49.557,47.557 C48.776,48.338 47.509,48.339 46.729,47.557 C45.948,46.776 45.948,45.509 46.729,44.729 C50.127,41.328 52,36.809 52,32 C52,27.192 50.127,22.672 46.729,19.272 C45.948,18.491 45.948,17.225 46.729,16.444 C47.508,15.663 48.776,15.663 49.557,16.444 C53.711,20.599 56,26.124 56,32 Z" id="Shape"></path>
        </g>
    </g>
</svg>